<svg width="104" height="77" viewBox="0 0 104 77" fill="none" xmlns="http://www.w3.org/2000/svg">
<rect y="8" width="104" height="69" fill="#3C3636"/>
<mask id="path-2-outside-1_194_18" maskUnits="userSpaceOnUse" x="10" y="14" width="77" height="36" fill="black">
<rect fill="white" x="10" y="14" width="77" height="36"/>
<path d="M25.2588 35.9636V29.3145H39.0425V46.5197C35.3215 47.7978 31.2123 48.4368 26.7149 48.4368C21.8129 48.4368 18.0111 47.0131 15.3094 44.1658C12.6239 41.3185 11.2811 37.2821 11.2811 32.0566C11.2811 26.8311 12.7452 22.7867 15.6734 19.9232C18.6016 17.0435 22.727 15.6036 28.0495 15.6036C31.8999 15.6036 35.3458 16.275 38.3873 17.6178L35.6694 24.3883C33.3883 23.2558 30.9211 22.6896 28.2679 22.6896C25.6309 22.6896 23.6249 23.5066 22.2497 25.1405C20.8746 26.7745 20.1871 29.1041 20.1871 32.1294C20.1871 35.1385 20.8099 37.4277 22.0556 38.997C23.3013 40.5662 25.0971 41.3509 27.4429 41.3509C28.7533 41.3509 29.9262 41.2214 30.9616 40.9626V35.9636H25.2588ZM71.2432 35.9636V29.3145H85.0268V46.5197C81.3059 47.7978 77.1967 48.4368 72.6992 48.4368C67.7973 48.4368 63.9955 47.0131 61.2938 44.1658C58.6082 41.3185 57.2655 37.2821 57.2655 32.0566C57.2655 26.8311 58.7296 22.7867 61.6578 19.9232C64.586 17.0435 68.7114 15.6036 74.0339 15.6036C77.8843 15.6036 81.3302 16.275 84.3716 17.6178L81.6537 24.3883C79.3726 23.2558 76.9055 22.6896 74.2523 22.6896C71.6153 22.6896 69.6092 23.5066 68.2341 25.1405C66.859 26.7745 66.1714 29.1041 66.1714 32.1294C66.1714 35.1385 66.7943 37.4277 68.04 38.997C69.2857 40.5662 71.0814 41.3509 73.4272 41.3509C74.7377 41.3509 75.9106 41.2214 76.946 40.9626V35.9636H71.2432Z"/>
</mask>
<g filter="url(#filter0_i_194_18)">
<path d="M25.2588 35.9636V29.3145H39.0425V46.5197C35.3215 47.7978 31.2123 48.4368 26.7149 48.4368C21.8129 48.4368 18.0111 47.0131 15.3094 44.1658C12.6239 41.3185 11.2811 37.2821 11.2811 32.0566C11.2811 26.8311 12.7452 22.7867 15.6734 19.9232C18.6016 17.0435 22.727 15.6036 28.0495 15.6036C31.8999 15.6036 35.3458 16.275 38.3873 17.6178L35.6694 24.3883C33.3883 23.2558 30.9211 22.6896 28.2679 22.6896C25.6309 22.6896 23.6249 23.5066 22.2497 25.1405C20.8746 26.7745 20.1871 29.1041 20.1871 32.1294C20.1871 35.1385 20.8099 37.4277 22.0556 38.997C23.3013 40.5662 25.0971 41.3509 27.4429 41.3509C28.7533 41.3509 29.9262 41.2214 30.9616 40.9626V35.9636H25.2588ZM71.2432 35.9636V29.3145H85.0268V46.5197C81.3059 47.7978 77.1967 48.4368 72.6992 48.4368C67.7973 48.4368 63.9955 47.0131 61.2938 44.1658C58.6082 41.3185 57.2655 37.2821 57.2655 32.0566C57.2655 26.8311 58.7296 22.7867 61.6578 19.9232C64.586 17.0435 68.7114 15.6036 74.0339 15.6036C77.8843 15.6036 81.3302 16.275 84.3716 17.6178L81.6537 24.3883C79.3726 23.2558 76.9055 22.6896 74.2523 22.6896C71.6153 22.6896 69.6092 23.5066 68.2341 25.1405C66.859 26.7745 66.1714 29.1041 66.1714 32.1294C66.1714 35.1385 66.7943 37.4277 68.04 38.997C69.2857 40.5662 71.0814 41.3509 73.4272 41.3509C74.7377 41.3509 75.9106 41.2214 76.946 40.9626V35.9636H71.2432Z" fill="white"/>
</g>
<path d="M25.2588 35.9636H24.2588V36.9636H25.2588V35.9636ZM25.2588 29.3145V28.3145H24.2588V29.3145H25.2588ZM39.0425 29.3145H40.0425V28.3145H39.0425V29.3145ZM39.0425 46.5197L39.3673 47.4655L40.0425 47.2336V46.5197H39.0425ZM15.3094 44.1658L14.5819 44.852L14.584 44.8541L15.3094 44.1658ZM15.6734 19.9232L16.3726 20.6381L16.3746 20.6361L15.6734 19.9232ZM38.3873 17.6178L39.3153 17.9903L39.6754 17.0934L38.7911 16.703L38.3873 17.6178ZM35.6694 24.3883L35.2247 25.284L36.1942 25.7653L36.5974 24.7608L35.6694 24.3883ZM22.2497 25.1405L21.4846 24.4966L21.4846 24.4966L22.2497 25.1405ZM22.0556 38.997L21.2724 39.6187L21.2724 39.6187L22.0556 38.997ZM30.9616 40.9626L31.2041 41.9327L31.9616 41.7434V40.9626H30.9616ZM30.9616 35.9636H31.9616V34.9636H30.9616V35.9636ZM26.2588 35.9636V29.3145H24.2588V35.9636H26.2588ZM25.2588 30.3145H39.0425V28.3145H25.2588V30.3145ZM38.0425 29.3145V46.5197H40.0425V29.3145H38.0425ZM38.7176 45.574C35.115 46.8114 31.1174 47.4368 26.7149 47.4368V49.4368C31.3073 49.4368 35.5281 48.7842 39.3673 47.4655L38.7176 45.574ZM26.7149 47.4368C22.0145 47.4368 18.5029 46.0786 16.0348 43.4775L14.584 44.8541C17.5193 47.9477 21.6114 49.4368 26.7149 49.4368V47.4368ZM16.0369 43.4797C13.5784 40.8731 12.2811 37.1145 12.2811 32.0566H10.2811C10.2811 37.4497 11.6694 41.7639 14.5819 44.852L16.0369 43.4797ZM12.2811 32.0566C12.2811 27.0221 13.6862 23.2651 16.3726 20.6381L14.9742 19.2082C11.8042 22.3082 10.2811 26.6402 10.2811 32.0566H12.2811ZM16.3746 20.6361C19.0651 17.9902 22.9085 16.6036 28.0495 16.6036V14.6036C22.5455 14.6036 18.1381 16.0967 14.9722 19.2102L16.3746 20.6361ZM28.0495 16.6036C31.7826 16.6036 35.0877 17.2542 37.9834 18.5326L38.7911 16.703C35.6039 15.2958 32.0172 14.6036 28.0495 14.6036V16.6036ZM37.4592 17.2453L34.7413 24.0157L36.5974 24.7608L39.3153 17.9903L37.4592 17.2453ZM36.114 23.4926C33.6889 22.2886 31.0688 21.6896 28.2679 21.6896V23.6896C30.7735 23.6896 33.0876 24.223 35.2247 25.284L36.114 23.4926ZM28.2679 21.6896C25.4115 21.6896 23.0936 22.5848 21.4846 24.4966L23.0149 25.7844C24.1562 24.4283 25.8504 23.6896 28.2679 23.6896V21.6896ZM21.4846 24.4966C19.9054 26.3732 19.1871 28.9653 19.1871 32.1294H21.1871C21.1871 29.243 21.8439 27.1759 23.0149 25.7844L21.4846 24.4966ZM19.1871 32.1294C19.1871 35.2559 19.8312 37.8032 21.2724 39.6187L22.8388 38.3752C21.7886 37.0522 21.1871 35.0211 21.1871 32.1294H19.1871ZM21.2724 39.6187C22.7414 41.4692 24.8504 42.3509 27.4429 42.3509V40.3509C25.3437 40.3509 23.8613 39.6632 22.8388 38.3752L21.2724 39.6187ZM27.4429 42.3509C28.8173 42.3509 30.0738 42.2153 31.2041 41.9327L30.719 39.9924C29.7785 40.2276 28.6893 40.3509 27.4429 40.3509V42.3509ZM31.9616 40.9626V35.9636H29.9616V40.9626H31.9616ZM30.9616 34.9636H25.2588V36.9636H30.9616V34.9636ZM71.2432 35.9636H70.2432V36.9636H71.2432V35.9636ZM71.2432 29.3145V28.3145H70.2432V29.3145H71.2432ZM85.0268 29.3145H86.0268V28.3145H85.0268V29.3145ZM85.0268 46.5197L85.3517 47.4655L86.0268 47.2336V46.5197H85.0268ZM61.2938 44.1658L60.5663 44.852L60.5684 44.8541L61.2938 44.1658ZM61.6578 19.9232L62.3569 20.6381L62.359 20.6361L61.6578 19.9232ZM84.3716 17.6178L85.2997 17.9903L85.6597 17.0934L84.7755 16.703L84.3716 17.6178ZM81.6537 24.3883L81.2091 25.284L82.1785 25.7653L82.5818 24.7608L81.6537 24.3883ZM68.2341 25.1405L67.469 24.4966L67.469 24.4966L68.2341 25.1405ZM68.04 38.997L67.2568 39.6187L67.2568 39.6187L68.04 38.997ZM76.946 40.9626L77.1885 41.9327L77.946 41.7434V40.9626H76.946ZM76.946 35.9636H77.946V34.9636H76.946V35.9636ZM72.2432 35.9636V29.3145H70.2432V35.9636H72.2432ZM71.2432 30.3145H85.0268V28.3145H71.2432V30.3145ZM84.0268 29.3145V46.5197H86.0268V29.3145H84.0268ZM84.702 45.574C81.0994 46.8114 77.1017 47.4368 72.6992 47.4368V49.4368C77.2917 49.4368 81.5124 48.7842 85.3517 47.4655L84.702 45.574ZM72.6992 47.4368C67.9989 47.4368 64.4873 46.0786 62.0192 43.4775L60.5684 44.8541C63.5037 47.9477 67.5957 49.4368 72.6992 49.4368V47.4368ZM62.0213 43.4797C59.5627 40.8731 58.2655 37.1145 58.2655 32.0566H56.2655C56.2655 37.4497 57.6537 41.7639 60.5663 44.852L62.0213 43.4797ZM58.2655 32.0566C58.2655 27.0221 59.6706 23.2651 62.3569 20.6381L60.9586 19.2082C57.7885 22.3082 56.2655 26.6402 56.2655 32.0566H58.2655ZM62.359 20.6361C65.0495 17.9902 68.8929 16.6036 74.0339 16.6036V14.6036C68.5299 14.6036 64.1225 16.0967 60.9566 19.2102L62.359 20.6361ZM74.0339 16.6036C77.767 16.6036 81.0721 17.2542 83.9678 18.5326L84.7755 16.703C81.5883 15.2958 78.0015 14.6036 74.0339 14.6036V16.6036ZM83.4436 17.2453L80.7257 24.0157L82.5818 24.7608L85.2997 17.9903L83.4436 17.2453ZM82.0984 23.4926C79.6733 22.2886 77.0531 21.6896 74.2523 21.6896V23.6896C76.7579 23.6896 79.072 24.223 81.2091 25.284L82.0984 23.4926ZM74.2523 21.6896C71.3958 21.6896 69.078 22.5848 67.469 24.4966L68.9992 25.7844C70.1405 24.4283 71.8348 23.6896 74.2523 23.6896V21.6896ZM67.469 24.4966C65.8898 26.3732 65.1714 28.9653 65.1714 32.1294H67.1714C67.1714 29.243 67.8282 27.1759 68.9992 25.7844L67.469 24.4966ZM65.1714 32.1294C65.1714 35.2559 65.8156 37.8032 67.2568 39.6187L68.8232 38.3752C67.773 37.0522 67.1714 35.0211 67.1714 32.1294H65.1714ZM67.2568 39.6187C68.7257 41.4692 70.8348 42.3509 73.4272 42.3509V40.3509C71.3281 40.3509 69.8456 39.6632 68.8232 38.3752L67.2568 39.6187ZM73.4272 42.3509C74.8016 42.3509 76.0582 42.2153 77.1885 41.9327L76.7034 39.9924C75.7629 40.2276 74.6737 40.3509 73.4272 40.3509V42.3509ZM77.946 40.9626V35.9636H75.946V40.9626H77.946ZM76.946 34.9636H71.2432V36.9636H76.946V34.9636Z" fill="black" mask="url(#path-2-outside-1_194_18)"/>
<mask id="path-4-outside-2_194_18" maskUnits="userSpaceOnUse" x="8" y="54" width="90" height="15" fill="black">
<rect fill="white" x="8" y="54" width="90" height="15"/>
<path d="M14.4196 62.9879V60.7715H19.0142V66.5066C17.7738 66.9326 16.4041 67.1456 14.905 67.1456C13.271 67.1456 12.0037 66.671 11.1031 65.7219C10.208 64.7728 9.76036 63.4274 9.76036 61.6855C9.76036 59.9437 10.2484 58.5956 11.2245 57.6411C12.2005 56.6812 13.5757 56.2012 15.3498 56.2012C16.6333 56.2012 17.7819 56.425 18.7958 56.8726L17.8898 59.1294C17.1294 58.7519 16.307 58.5632 15.4226 58.5632C14.5436 58.5632 13.875 58.8355 13.4166 59.3802C12.9582 59.9248 12.729 60.7014 12.729 61.7098C12.729 62.7128 12.9366 63.4759 13.3519 63.999C13.7671 64.5221 14.3657 64.7836 15.1476 64.7836C15.5844 64.7836 15.9754 64.7405 16.3205 64.6542V62.9879H14.4196ZM25.9928 62.8665C25.9928 62.1331 25.8985 61.5939 25.7097 61.2487C25.521 60.8982 25.2082 60.723 24.7714 60.723C24.34 60.723 24.0272 60.8982 23.8331 61.2487C23.6443 61.5993 23.55 62.1385 23.55 62.8665C23.55 63.5891 23.647 64.1311 23.8412 64.4924C24.0353 64.8537 24.3481 65.0344 24.7795 65.0344C25.2163 65.0344 25.5264 64.8564 25.7097 64.5005C25.8985 64.1392 25.9928 63.5945 25.9928 62.8665ZM28.8887 62.8584C28.8887 64.2066 28.5247 65.2582 27.7967 66.0131C27.0741 66.7681 26.0737 67.1456 24.7957 67.1456C23.5176 67.1456 22.5065 66.76 21.7623 65.9889C21.0235 65.2177 20.6541 64.1689 20.6541 62.8423C20.6541 61.5157 21.0154 60.4776 21.738 59.728C22.466 58.9784 23.4852 58.6036 24.7957 58.6036C26.0198 58.5875 27.012 58.973 27.7724 59.7604C28.5328 60.5423 28.9049 61.575 28.8887 62.8584ZM35.4928 62.8665C35.4928 62.1331 35.3985 61.5939 35.2097 61.2487C35.021 60.8982 34.7082 60.723 34.2714 60.723C33.84 60.723 33.5272 60.8982 33.3331 61.2487C33.1443 61.5993 33.05 62.1385 33.05 62.8665C33.05 63.5891 33.147 64.1311 33.3412 64.4924C33.5353 64.8537 33.8481 65.0344 34.2795 65.0344C34.7163 65.0344 35.0264 64.8564 35.2097 64.5005C35.3985 64.1392 35.4928 63.5945 35.4928 62.8665ZM38.3887 62.8584C38.3887 64.2066 38.0247 65.2582 37.2967 66.0131C36.5741 66.7681 35.5737 67.1456 34.2957 67.1456C33.0176 67.1456 32.0065 66.76 31.2623 65.9889C30.5235 65.2177 30.1541 64.1689 30.1541 62.8423C30.1541 61.5157 30.5154 60.4776 31.238 59.728C31.966 58.9784 32.9852 58.6036 34.2957 58.6036C35.5198 58.5875 36.512 58.973 37.2724 59.7604C38.0328 60.5423 38.4049 61.575 38.3887 62.8584ZM42.6875 58.6036C43.1512 58.6036 43.5557 58.698 43.9008 58.8868C44.2513 59.0755 44.5668 59.3856 44.8472 59.817H44.9038C44.8122 59.1483 44.7663 58.5012 44.7663 57.8756V55.6754H47.6379V67H45.4863L44.8796 65.9565H44.7663C44.2756 66.7492 43.5449 67.1456 42.5742 67.1456C41.6952 67.1672 40.9861 66.7897 40.4468 66.0131C39.9129 65.2366 39.646 64.185 39.646 62.8584C39.6514 61.5319 39.9237 60.4911 40.463 59.7361C41.0077 58.9811 41.7491 58.6036 42.6875 58.6036ZM43.7148 60.9009C43.3373 60.9009 43.0461 61.0762 42.8412 61.4267C42.6362 61.7772 42.5338 62.276 42.5338 62.9232C42.5338 63.5703 42.6362 64.061 42.8412 64.3953C43.0515 64.7297 43.3642 64.8969 43.7795 64.8969C44.2001 64.8969 44.5048 64.7594 44.6935 64.4843C44.8877 64.2039 44.9928 63.7563 45.009 63.1416V62.9151C45.009 62.1978 44.9038 61.6828 44.6935 61.3701C44.4886 61.0573 44.1624 60.9009 43.7148 60.9009ZM58.3259 62.9879V60.7715H62.9204V66.5066C61.6801 66.9326 60.3104 67.1456 58.8112 67.1456C57.1772 67.1456 55.91 66.671 55.0094 65.7219C54.1142 64.7728 53.6666 63.4274 53.6666 61.6855C53.6666 59.9437 54.1546 58.5956 55.1307 57.6411C56.1068 56.6812 57.4819 56.2012 59.2561 56.2012C60.5395 56.2012 61.6882 56.425 62.702 56.8726L61.796 59.1294C61.0357 58.7519 60.2133 58.5632 59.3289 58.5632C58.4499 58.5632 57.7812 58.8355 57.3228 59.3802C56.8645 59.9248 56.6353 60.7014 56.6353 61.7098C56.6353 62.7128 56.8429 63.4759 57.2581 63.999C57.6734 64.5221 58.2719 64.7836 59.0539 64.7836C59.4907 64.7836 59.8816 64.7405 60.2268 64.6542V62.9879H58.3259ZM72.2691 67H70.3035L69.7535 65.908H69.6969C69.3248 66.3771 68.9338 66.7007 68.524 66.8787C68.1195 67.0566 67.6045 67.1456 66.979 67.1456C66.197 67.1456 65.585 66.911 65.1428 66.4419C64.7006 65.9727 64.4795 65.3202 64.4795 64.4843C64.4795 62.791 65.6685 61.8959 68.0467 61.7988L69.4299 61.7503V61.637C69.4299 60.9575 69.0929 60.6178 68.4188 60.6178C67.8256 60.6178 67.0625 60.82 66.1296 61.2245L65.3045 59.3478C66.2698 58.8517 67.4832 58.6036 68.9446 58.6036C70.0015 58.6036 70.8185 58.8679 71.3955 59.3964C71.9779 59.9248 72.2691 60.6555 72.2691 61.5885V67ZM67.3834 64.3792C67.3834 64.8861 67.653 65.1395 68.1923 65.1395C68.5374 65.1395 68.8313 65.0317 69.074 64.816C69.3167 64.6003 69.438 64.3145 69.438 63.9585V63.3195L68.7828 63.3438C67.8499 63.3869 67.3834 63.7321 67.3834 64.3792ZM87.1722 67H84.3249V62.5187C84.3249 61.9471 84.2494 61.5265 84.0984 61.2568C83.9474 60.9818 83.7048 60.8443 83.3704 60.8443C82.9336 60.8443 82.6128 61.0303 82.4078 61.4024C82.2083 61.7745 82.1085 62.3596 82.1085 63.1577V67H79.2531V62.5187C79.2531 61.9525 79.1776 61.5319 79.0266 61.2568C78.881 60.9818 78.6492 60.8443 78.331 60.8443C77.878 60.8443 77.549 61.0438 77.3441 61.4429C77.1446 61.8419 77.0448 62.4917 77.0448 63.3923V67H74.1975V58.7492H76.3492L76.7051 59.7685H76.875C77.0853 59.3964 77.3981 59.1105 77.8133 58.911C78.2285 58.7061 78.7031 58.6036 79.237 58.6036C80.4287 58.6036 81.2646 58.9649 81.7445 59.6876H81.971C82.2029 59.3478 82.5265 59.0836 82.9417 58.8948C83.3569 58.7007 83.8153 58.6036 84.3168 58.6036C85.2821 58.6036 85.9993 58.8544 86.4685 59.3559C86.9377 59.852 87.1722 60.6124 87.1722 61.637V67ZM94.127 61.8554C94.1216 61.4564 94.0111 61.1382 93.7954 60.9009C93.5797 60.6636 93.2912 60.545 92.9299 60.545C92.5739 60.545 92.2854 60.6555 92.0643 60.8766C91.8486 61.0923 91.7219 61.4186 91.6842 61.8554H94.127ZM93.0916 67.1456C91.7165 67.1456 90.6488 66.7816 89.8884 66.0536C89.128 65.3148 88.7479 64.2605 88.7479 62.8908C88.7479 61.5211 89.0984 60.4641 89.7994 59.7199C90.5005 58.9757 91.49 58.6036 92.7681 58.6036C94.0461 58.6036 95.0222 58.9299 95.6963 59.5824C96.3758 60.2349 96.7155 61.1678 96.7155 62.3812V63.6431H91.6275C91.6437 64.1068 91.8109 64.4708 92.129 64.7351C92.4472 64.9939 92.8651 65.1234 93.3828 65.1234C93.9059 65.1234 94.3805 65.0775 94.8065 64.9858C95.2325 64.8888 95.6882 64.7243 96.1735 64.4924V66.5389C95.7421 66.7654 95.2864 66.9218 94.8065 67.0081C94.3319 67.0998 93.7603 67.1456 93.0916 67.1456Z"/>
</mask>
<path d="M14.4196 62.9879V60.7715H19.0142V66.5066C17.7738 66.9326 16.4041 67.1456 14.905 67.1456C13.271 67.1456 12.0037 66.671 11.1031 65.7219C10.208 64.7728 9.76036 63.4274 9.76036 61.6855C9.76036 59.9437 10.2484 58.5956 11.2245 57.6411C12.2005 56.6812 13.5757 56.2012 15.3498 56.2012C16.6333 56.2012 17.7819 56.425 18.7958 56.8726L17.8898 59.1294C17.1294 58.7519 16.307 58.5632 15.4226 58.5632C14.5436 58.5632 13.875 58.8355 13.4166 59.3802C12.9582 59.9248 12.729 60.7014 12.729 61.7098C12.729 62.7128 12.9366 63.4759 13.3519 63.999C13.7671 64.5221 14.3657 64.7836 15.1476 64.7836C15.5844 64.7836 15.9754 64.7405 16.3205 64.6542V62.9879H14.4196ZM25.9928 62.8665C25.9928 62.1331 25.8985 61.5939 25.7097 61.2487C25.521 60.8982 25.2082 60.723 24.7714 60.723C24.34 60.723 24.0272 60.8982 23.8331 61.2487C23.6443 61.5993 23.55 62.1385 23.55 62.8665C23.55 63.5891 23.647 64.1311 23.8412 64.4924C24.0353 64.8537 24.3481 65.0344 24.7795 65.0344C25.2163 65.0344 25.5264 64.8564 25.7097 64.5005C25.8985 64.1392 25.9928 63.5945 25.9928 62.8665ZM28.8887 62.8584C28.8887 64.2066 28.5247 65.2582 27.7967 66.0131C27.0741 66.7681 26.0737 67.1456 24.7957 67.1456C23.5176 67.1456 22.5065 66.76 21.7623 65.9889C21.0235 65.2177 20.6541 64.1689 20.6541 62.8423C20.6541 61.5157 21.0154 60.4776 21.738 59.728C22.466 58.9784 23.4852 58.6036 24.7957 58.6036C26.0198 58.5875 27.012 58.973 27.7724 59.7604C28.5328 60.5423 28.9049 61.575 28.8887 62.8584ZM35.4928 62.8665C35.4928 62.1331 35.3985 61.5939 35.2097 61.2487C35.021 60.8982 34.7082 60.723 34.2714 60.723C33.84 60.723 33.5272 60.8982 33.3331 61.2487C33.1443 61.5993 33.05 62.1385 33.05 62.8665C33.05 63.5891 33.147 64.1311 33.3412 64.4924C33.5353 64.8537 33.8481 65.0344 34.2795 65.0344C34.7163 65.0344 35.0264 64.8564 35.2097 64.5005C35.3985 64.1392 35.4928 63.5945 35.4928 62.8665ZM38.3887 62.8584C38.3887 64.2066 38.0247 65.2582 37.2967 66.0131C36.5741 66.7681 35.5737 67.1456 34.2957 67.1456C33.0176 67.1456 32.0065 66.76 31.2623 65.9889C30.5235 65.2177 30.1541 64.1689 30.1541 62.8423C30.1541 61.5157 30.5154 60.4776 31.238 59.728C31.966 58.9784 32.9852 58.6036 34.2957 58.6036C35.5198 58.5875 36.512 58.973 37.2724 59.7604C38.0328 60.5423 38.4049 61.575 38.3887 62.8584ZM42.6875 58.6036C43.1512 58.6036 43.5557 58.698 43.9008 58.8868C44.2513 59.0755 44.5668 59.3856 44.8472 59.817H44.9038C44.8122 59.1483 44.7663 58.5012 44.7663 57.8756V55.6754H47.6379V67H45.4863L44.8796 65.9565H44.7663C44.2756 66.7492 43.5449 67.1456 42.5742 67.1456C41.6952 67.1672 40.9861 66.7897 40.4468 66.0131C39.9129 65.2366 39.646 64.185 39.646 62.8584C39.6514 61.5319 39.9237 60.4911 40.463 59.7361C41.0077 58.9811 41.7491 58.6036 42.6875 58.6036ZM43.7148 60.9009C43.3373 60.9009 43.0461 61.0762 42.8412 61.4267C42.6362 61.7772 42.5338 62.276 42.5338 62.9232C42.5338 63.5703 42.6362 64.061 42.8412 64.3953C43.0515 64.7297 43.3642 64.8969 43.7795 64.8969C44.2001 64.8969 44.5048 64.7594 44.6935 64.4843C44.8877 64.2039 44.9928 63.7563 45.009 63.1416V62.9151C45.009 62.1978 44.9038 61.6828 44.6935 61.3701C44.4886 61.0573 44.1624 60.9009 43.7148 60.9009ZM58.3259 62.9879V60.7715H62.9204V66.5066C61.6801 66.9326 60.3104 67.1456 58.8112 67.1456C57.1772 67.1456 55.91 66.671 55.0094 65.7219C54.1142 64.7728 53.6666 63.4274 53.6666 61.6855C53.6666 59.9437 54.1546 58.5956 55.1307 57.6411C56.1068 56.6812 57.4819 56.2012 59.2561 56.2012C60.5395 56.2012 61.6882 56.425 62.702 56.8726L61.796 59.1294C61.0357 58.7519 60.2133 58.5632 59.3289 58.5632C58.4499 58.5632 57.7812 58.8355 57.3228 59.3802C56.8645 59.9248 56.6353 60.7014 56.6353 61.7098C56.6353 62.7128 56.8429 63.4759 57.2581 63.999C57.6734 64.5221 58.2719 64.7836 59.0539 64.7836C59.4907 64.7836 59.8816 64.7405 60.2268 64.6542V62.9879H58.3259ZM72.2691 67H70.3035L69.7535 65.908H69.6969C69.3248 66.3771 68.9338 66.7007 68.524 66.8787C68.1195 67.0566 67.6045 67.1456 66.979 67.1456C66.197 67.1456 65.585 66.911 65.1428 66.4419C64.7006 65.9727 64.4795 65.3202 64.4795 64.4843C64.4795 62.791 65.6685 61.8959 68.0467 61.7988L69.4299 61.7503V61.637C69.4299 60.9575 69.0929 60.6178 68.4188 60.6178C67.8256 60.6178 67.0625 60.82 66.1296 61.2245L65.3045 59.3478C66.2698 58.8517 67.4832 58.6036 68.9446 58.6036C70.0015 58.6036 70.8185 58.8679 71.3955 59.3964C71.9779 59.9248 72.2691 60.6555 72.2691 61.5885V67ZM67.3834 64.3792C67.3834 64.8861 67.653 65.1395 68.1923 65.1395C68.5374 65.1395 68.8313 65.0317 69.074 64.816C69.3167 64.6003 69.438 64.3145 69.438 63.9585V63.3195L68.7828 63.3438C67.8499 63.3869 67.3834 63.7321 67.3834 64.3792ZM87.1722 67H84.3249V62.5187C84.3249 61.9471 84.2494 61.5265 84.0984 61.2568C83.9474 60.9818 83.7048 60.8443 83.3704 60.8443C82.9336 60.8443 82.6128 61.0303 82.4078 61.4024C82.2083 61.7745 82.1085 62.3596 82.1085 63.1577V67H79.2531V62.5187C79.2531 61.9525 79.1776 61.5319 79.0266 61.2568C78.881 60.9818 78.6492 60.8443 78.331 60.8443C77.878 60.8443 77.549 61.0438 77.3441 61.4429C77.1446 61.8419 77.0448 62.4917 77.0448 63.3923V67H74.1975V58.7492H76.3492L76.7051 59.7685H76.875C77.0853 59.3964 77.3981 59.1105 77.8133 58.911C78.2285 58.7061 78.7031 58.6036 79.237 58.6036C80.4287 58.6036 81.2646 58.9649 81.7445 59.6876H81.971C82.2029 59.3478 82.5265 59.0836 82.9417 58.8948C83.3569 58.7007 83.8153 58.6036 84.3168 58.6036C85.2821 58.6036 85.9993 58.8544 86.4685 59.3559C86.9377 59.852 87.1722 60.6124 87.1722 61.637V67ZM94.127 61.8554C94.1216 61.4564 94.0111 61.1382 93.7954 60.9009C93.5797 60.6636 93.2912 60.545 92.9299 60.545C92.5739 60.545 92.2854 60.6555 92.0643 60.8766C91.8486 61.0923 91.7219 61.4186 91.6842 61.8554H94.127ZM93.0916 67.1456C91.7165 67.1456 90.6488 66.7816 89.8884 66.0536C89.128 65.3148 88.7479 64.2605 88.7479 62.8908C88.7479 61.5211 89.0984 60.4641 89.7994 59.7199C90.5005 58.9757 91.49 58.6036 92.7681 58.6036C94.0461 58.6036 95.0222 58.9299 95.6963 59.5824C96.3758 60.2349 96.7155 61.1678 96.7155 62.3812V63.6431H91.6275C91.6437 64.1068 91.8109 64.4708 92.129 64.7351C92.4472 64.9939 92.8651 65.1234 93.3828 65.1234C93.9059 65.1234 94.3805 65.0775 94.8065 64.9858C95.2325 64.8888 95.6882 64.7243 96.1735 64.4924V66.5389C95.7421 66.7654 95.2864 66.9218 94.8065 67.0081C94.3319 67.0998 93.7603 67.1456 93.0916 67.1456Z" fill="white"/>
<path d="M14.4196 62.9879H13.4196V63.9879H14.4196V62.9879ZM14.4196 60.7715V59.7715H13.4196V60.7715H14.4196ZM19.0142 60.7715H20.0142V59.7715H19.0142V60.7715ZM19.0142 66.5066L19.339 67.4523L20.0142 67.2204V66.5066H19.0142ZM11.1031 65.7219L10.3757 66.4081L10.3777 66.4103L11.1031 65.7219ZM11.2245 57.6411L11.9236 58.356L11.9256 58.354L11.2245 57.6411ZM18.7958 56.8726L19.7238 57.2451L20.0838 56.3482L19.1996 55.9578L18.7958 56.8726ZM17.8898 59.1294L17.4451 60.0251L18.4146 60.5064L18.8178 59.502L17.8898 59.1294ZM13.4166 59.3802L12.6515 58.7363L12.6515 58.7363L13.4166 59.3802ZM13.3519 63.999L12.5686 64.6207L12.5686 64.6207L13.3519 63.999ZM16.3205 64.6542L16.5631 65.6243L17.3205 65.435V64.6542H16.3205ZM16.3205 62.9879H17.3205V61.9879H16.3205V62.9879ZM15.4196 62.9879V60.7715H13.4196V62.9879H15.4196ZM14.4196 61.7715H19.0142V59.7715H14.4196V61.7715ZM18.0142 60.7715V66.5066H20.0142V60.7715H18.0142ZM18.6893 65.5608C17.5673 65.9462 16.3092 66.1456 14.905 66.1456V68.1456C16.4991 68.1456 17.9804 67.919 19.339 67.4523L18.6893 65.5608ZM14.905 66.1456C13.4726 66.1456 12.4955 65.7365 11.8285 65.0336L10.3777 66.4103C11.5119 67.6056 13.0694 68.1456 14.905 68.1456V66.1456ZM11.8306 65.0358C11.1625 64.3274 10.7604 63.2598 10.7604 61.6855H8.76036C8.76036 63.595 9.25345 65.2183 10.3757 66.4081L11.8306 65.0358ZM10.7604 61.6855C10.7604 60.1347 11.1894 59.074 11.9236 58.356L10.5253 56.9261C9.30736 58.1171 8.76036 59.7528 8.76036 61.6855H10.7604ZM11.9256 58.354C12.664 57.6279 13.7572 57.2012 15.3498 57.2012V55.2012C13.3942 55.2012 11.737 55.7344 10.5233 56.9281L11.9256 58.354ZM15.3498 57.2012C16.516 57.2012 17.5238 57.4042 18.3919 57.7874L19.1996 55.9578C18.04 55.4458 16.7506 55.2012 15.3498 55.2012V57.2012ZM17.8677 56.5001L16.9618 58.7569L18.8178 59.502L19.7238 57.2451L17.8677 56.5001ZM18.3345 58.2337C17.4301 57.7847 16.4547 57.5632 15.4226 57.5632V59.5632C16.1594 59.5632 16.8288 59.7191 17.4451 60.0251L18.3345 58.2337ZM15.4226 57.5632C14.3242 57.5632 13.3437 57.9138 12.6515 58.7363L14.1817 60.0241C14.4062 59.7573 14.7631 59.5632 15.4226 59.5632V57.5632ZM12.6515 58.7363C11.989 59.5235 11.729 60.5625 11.729 61.7098H13.729C13.729 60.8402 13.9274 60.3262 14.1817 60.0241L12.6515 58.7363ZM11.729 61.7098C11.729 62.8302 11.9579 63.8514 12.5686 64.6207L14.1351 63.3773C13.9154 63.1004 13.729 62.5955 13.729 61.7098H11.729ZM12.5686 64.6207C13.2072 65.4251 14.119 65.7836 15.1476 65.7836V63.7836C14.6124 63.7836 14.3271 63.6191 14.1351 63.3773L12.5686 64.6207ZM15.1476 65.7836C15.6484 65.7836 16.123 65.7343 16.5631 65.6243L16.078 63.6841C15.8277 63.7466 15.5204 63.7836 15.1476 63.7836V65.7836ZM17.3205 64.6542V62.9879H15.3205V64.6542H17.3205ZM16.3205 61.9879H14.4196V63.9879H16.3205V61.9879ZM25.7097 61.2487L24.8292 61.7228L24.8323 61.7285L25.7097 61.2487ZM23.8331 61.2487L22.9582 60.7642L22.9526 60.7746L23.8331 61.2487ZM23.8412 64.4924L22.9603 64.9657L22.9603 64.9657L23.8412 64.4924ZM25.7097 64.5005L24.8233 64.0375L24.8207 64.0425L25.7097 64.5005ZM28.8887 62.8584L27.8887 62.8458V62.8584H28.8887ZM27.7967 66.0131L27.0768 65.319L27.0743 65.3217L27.7967 66.0131ZM21.7623 65.9889L21.0402 66.6807L21.0427 66.6833L21.7623 65.9889ZM21.738 59.728L21.0207 59.0313L21.0181 59.034L21.738 59.728ZM24.7957 58.6036L24.7957 59.6037L24.8089 59.6036L24.7957 58.6036ZM27.7724 59.7604L27.0531 60.4551L27.0555 60.4575L27.7724 59.7604ZM26.9928 62.8665C26.9928 62.0872 26.8994 61.34 26.5871 60.7689L24.8323 61.7285C24.8975 61.8477 24.9928 62.179 24.9928 62.8665H26.9928ZM26.5902 60.7746C26.416 60.4512 26.1625 60.1726 25.8224 59.982C25.4873 59.7943 25.1238 59.723 24.7714 59.723V61.723C24.814 61.723 24.8382 61.7273 24.8481 61.7296C24.8571 61.7317 24.8542 61.7321 24.8447 61.7268C24.8349 61.7212 24.8264 61.7143 24.8213 61.7089C24.8167 61.7041 24.8204 61.7065 24.8292 61.7228L26.5902 60.7746ZM24.7714 59.723C24.4192 59.723 24.0578 59.7952 23.7244 59.982C23.3873 60.171 23.1345 60.446 22.9583 60.7642L24.7079 61.7332C24.7182 61.7146 24.7236 61.7099 24.7208 61.7128C24.7176 61.7161 24.7108 61.7219 24.7021 61.7268C24.6937 61.7315 24.6911 61.7311 24.6993 61.7292C24.7083 61.7271 24.731 61.723 24.7714 61.723V59.723ZM22.9526 60.7746C22.6444 61.347 22.55 62.0891 22.55 62.8665H24.55C24.55 62.1879 24.6443 61.8515 24.7135 61.7228L22.9526 60.7746ZM22.55 62.8665C22.55 63.646 22.6491 64.3866 22.9603 64.9657L24.7221 64.0191C24.645 63.8756 24.55 63.5323 24.55 62.8665H22.55ZM22.9603 64.9657C23.1331 65.2874 23.3829 65.5694 23.7212 65.7648C24.0567 65.9586 24.4224 66.0344 24.7795 66.0344V64.0344C24.7412 64.0344 24.7208 64.0304 24.7141 64.0287C24.7082 64.0273 24.7123 64.0276 24.7215 64.033C24.7309 64.0384 24.7373 64.0442 24.7393 64.0464C24.7409 64.0481 24.7339 64.0412 24.7221 64.0191L22.9603 64.9657ZM24.7795 66.0344C25.134 66.0344 25.5006 65.9615 25.8374 65.7682C26.1791 65.5721 26.4297 65.2865 26.5987 64.9585L24.8207 64.0425C24.8121 64.0593 24.8086 64.0612 24.8141 64.0553C24.8166 64.0526 24.8205 64.0488 24.8257 64.0446C24.831 64.0404 24.8365 64.0367 24.8419 64.0336C24.8534 64.027 24.8585 64.0266 24.8515 64.0282C24.8437 64.0301 24.8211 64.0344 24.7795 64.0344V66.0344ZM26.5961 64.9635C26.8972 64.3871 26.9928 63.6476 26.9928 62.8665H24.9928C24.9928 63.5415 24.8997 63.8913 24.8234 64.0375L26.5961 64.9635ZM27.8887 62.8584C27.8887 64.0246 27.578 64.7993 27.0768 65.319L28.5165 66.7073C29.4714 65.7171 29.8887 64.3886 29.8887 62.8584H27.8887ZM27.0743 65.3217C26.581 65.837 25.8661 66.1456 24.7957 66.1456V68.1456C26.2814 68.1456 27.5671 67.6992 28.5191 66.7046L27.0743 65.3217ZM24.7957 66.1456C23.7326 66.1456 23.0017 65.8332 22.4819 65.2945L21.0427 66.6833C22.0112 67.6869 23.3026 68.1456 24.7957 68.1456V66.1456ZM22.4844 65.2971C21.9647 64.7546 21.6541 63.9767 21.6541 62.8423H19.6541C19.6541 64.361 20.0823 65.6808 21.0402 66.6807L22.4844 65.2971ZM21.6541 62.8423C21.6541 61.7005 21.9606 60.938 22.458 60.422L21.0181 59.034C20.0702 60.0172 19.6541 61.3309 19.6541 62.8423H21.6541ZM22.4554 60.4247C22.9498 59.9157 23.6827 59.6036 24.7957 59.6036V57.6036C23.2878 57.6036 21.9823 58.0412 21.0207 59.0313L22.4554 60.4247ZM24.8089 59.6036C25.7933 59.5905 26.5081 59.8907 27.0531 60.455L28.4917 59.0657C27.516 58.0554 26.2463 57.5844 24.7824 57.6037L24.8089 59.6036ZM27.0555 60.4575C27.5989 61.0163 27.9022 61.7767 27.8888 62.8458L29.8886 62.871C29.9075 61.3733 29.4666 60.0683 28.4893 59.0632L27.0555 60.4575ZM35.2097 61.2487L34.3292 61.7228L34.3323 61.7285L35.2097 61.2487ZM33.3331 61.2487L32.4582 60.7642L32.4526 60.7746L33.3331 61.2487ZM33.3412 64.4924L32.4603 64.9657L32.4603 64.9657L33.3412 64.4924ZM35.2097 64.5005L34.3233 64.0375L34.3207 64.0425L35.2097 64.5005ZM38.3887 62.8584L37.3887 62.8458V62.8584H38.3887ZM37.2967 66.0131L36.5768 65.319L36.5743 65.3217L37.2967 66.0131ZM31.2623 65.9889L30.5402 66.6807L30.5427 66.6833L31.2623 65.9889ZM31.238 59.728L30.5207 59.0313L30.5181 59.034L31.238 59.728ZM34.2957 58.6036L34.2957 59.6037L34.3089 59.6036L34.2957 58.6036ZM37.2724 59.7604L36.5531 60.4551L36.5555 60.4575L37.2724 59.7604ZM36.4928 62.8665C36.4928 62.0872 36.3994 61.34 36.0871 60.7689L34.3323 61.7285C34.3975 61.8477 34.4928 62.179 34.4928 62.8665H36.4928ZM36.0902 60.7746C35.916 60.4512 35.6625 60.1726 35.3224 59.982C34.9873 59.7943 34.6238 59.723 34.2714 59.723V61.723C34.314 61.723 34.3382 61.7273 34.3481 61.7296C34.3571 61.7317 34.3542 61.7321 34.3447 61.7268C34.3349 61.7212 34.3264 61.7143 34.3213 61.7089C34.3167 61.7041 34.3204 61.7065 34.3292 61.7228L36.0902 60.7746ZM34.2714 59.723C33.9192 59.723 33.5578 59.7952 33.2244 59.982C32.8873 60.171 32.6345 60.446 32.4583 60.7642L34.2079 61.7332C34.2182 61.7146 34.2236 61.7099 34.2208 61.7128C34.2176 61.7161 34.2108 61.7219 34.2021 61.7268C34.1937 61.7315 34.1911 61.7311 34.1993 61.7292C34.2083 61.7271 34.231 61.723 34.2714 61.723V59.723ZM32.4526 60.7746C32.1444 61.347 32.05 62.0891 32.05 62.8665H34.05C34.05 62.1879 34.1443 61.8515 34.2135 61.7228L32.4526 60.7746ZM32.05 62.8665C32.05 63.646 32.1491 64.3866 32.4603 64.9657L34.2221 64.0191C34.145 63.8756 34.05 63.5323 34.05 62.8665H32.05ZM32.4603 64.9657C32.6331 65.2874 32.8829 65.5694 33.2212 65.7648C33.5567 65.9586 33.9224 66.0344 34.2795 66.0344V64.0344C34.2412 64.0344 34.2208 64.0304 34.2141 64.0287C34.2082 64.0273 34.2123 64.0276 34.2215 64.033C34.2309 64.0384 34.2373 64.0442 34.2393 64.0464C34.2409 64.0481 34.2339 64.0412 34.2221 64.0191L32.4603 64.9657ZM34.2795 66.0344C34.634 66.0344 35.0006 65.9615 35.3374 65.7682C35.6791 65.5721 35.9297 65.2865 36.0987 64.9585L34.3207 64.0425C34.3121 64.0593 34.3086 64.0612 34.3141 64.0553C34.3166 64.0526 34.3205 64.0488 34.3257 64.0446C34.331 64.0404 34.3365 64.0367 34.3419 64.0336C34.3534 64.027 34.3585 64.0266 34.3515 64.0282C34.3437 64.0301 34.3211 64.0344 34.2795 64.0344V66.0344ZM36.0961 64.9635C36.3972 64.3871 36.4928 63.6476 36.4928 62.8665H34.4928C34.4928 63.5415 34.3997 63.8913 34.3234 64.0375L36.0961 64.9635ZM37.3887 62.8584C37.3887 64.0246 37.078 64.7993 36.5768 65.319L38.0165 66.7073C38.9714 65.7171 39.3887 64.3886 39.3887 62.8584H37.3887ZM36.5743 65.3217C36.081 65.837 35.3661 66.1456 34.2957 66.1456V68.1456C35.7814 68.1456 37.0671 67.6992 38.0191 66.7046L36.5743 65.3217ZM34.2957 66.1456C33.2326 66.1456 32.5017 65.8332 31.9819 65.2945L30.5427 66.6833C31.5112 67.6869 32.8026 68.1456 34.2957 68.1456V66.1456ZM31.9844 65.2971C31.4647 64.7546 31.1541 63.9767 31.1541 62.8423H29.1541C29.1541 64.361 29.5823 65.6808 30.5402 66.6807L31.9844 65.2971ZM31.1541 62.8423C31.1541 61.7005 31.4606 60.938 31.958 60.422L30.5181 59.034C29.5702 60.0172 29.1541 61.3309 29.1541 62.8423H31.1541ZM31.9554 60.4247C32.4498 59.9157 33.1827 59.6036 34.2957 59.6036V57.6036C32.7878 57.6036 31.4823 58.0412 30.5207 59.0313L31.9554 60.4247ZM34.3089 59.6036C35.2933 59.5905 36.0081 59.8907 36.5531 60.455L37.9917 59.0657C37.016 58.0554 35.7463 57.5844 34.2824 57.6037L34.3089 59.6036ZM36.5555 60.4575C37.0989 61.0163 37.4022 61.7767 37.3888 62.8458L39.3886 62.871C39.4075 61.3733 38.9666 60.0683 37.9893 59.0632L36.5555 60.4575ZM43.9008 58.8868L43.421 59.7641L43.4267 59.7672L43.9008 58.8868ZM44.8472 59.817L44.0088 60.362L44.3045 60.817H44.8472V59.817ZM44.9038 59.817V60.817H46.0503L45.8946 59.6812L44.9038 59.817ZM44.7663 55.6754V54.6754H43.7663V55.6754H44.7663ZM47.6379 55.6754H48.6379V54.6754H47.6379V55.6754ZM47.6379 67V68H48.6379V67H47.6379ZM45.4863 67L44.6217 67.5026L44.9109 68H45.4863V67ZM44.8796 65.9565L45.7441 65.4539L45.4549 64.9565H44.8796V65.9565ZM44.7663 65.9565V64.9565H44.2093L43.9161 65.4302L44.7663 65.9565ZM42.5742 67.1456V66.1456H42.562L42.5497 66.1459L42.5742 67.1456ZM40.4468 66.0131L39.6228 66.5797L39.6255 66.5835L40.4468 66.0131ZM39.646 62.8584L38.646 62.8544V62.8584H39.646ZM40.463 59.7361L39.652 59.151L39.6493 59.1549L40.463 59.7361ZM42.8412 61.4267L41.9779 60.922L41.9779 60.922L42.8412 61.4267ZM42.8412 64.3953L41.9885 64.9179L41.9947 64.9278L42.8412 64.3953ZM44.6935 64.4843L43.8713 63.9151L43.869 63.9185L44.6935 64.4843ZM45.009 63.1416L46.0087 63.1679L46.009 63.1547V63.1416H45.009ZM44.6935 61.3701L43.857 61.9181L43.8637 61.9281L44.6935 61.3701ZM42.6875 59.6036C43.0136 59.6036 43.2473 59.6691 43.421 59.7641L44.3806 58.0094C43.8641 57.7269 43.2889 57.6036 42.6875 57.6036V59.6036ZM43.4267 59.7672C43.5926 59.8566 43.7938 60.0312 44.0088 60.362L45.6857 59.272C45.3399 58.74 44.9101 58.2944 44.3749 58.0063L43.4267 59.7672ZM44.8472 60.817H44.9038V58.817H44.8472V60.817ZM45.8946 59.6812C45.8086 59.054 45.7663 58.4523 45.7663 57.8756H43.7663C43.7663 58.55 43.8157 59.2426 43.9131 59.9528L45.8946 59.6812ZM45.7663 57.8756V55.6754H43.7663V57.8756H45.7663ZM44.7663 56.6754H47.6379V54.6754H44.7663V56.6754ZM46.6379 55.6754V67H48.6379V55.6754H46.6379ZM47.6379 66H45.4863V68H47.6379V66ZM46.3508 66.4974L45.7441 65.4539L44.0151 66.4591L44.6217 67.5026L46.3508 66.4974ZM44.8796 64.9565H44.7663V66.9565H44.8796V64.9565ZM43.9161 65.4302C43.6166 65.914 43.2159 66.1456 42.5742 66.1456V68.1456C43.8739 68.1456 44.9347 67.5845 45.6166 66.4829L43.9161 65.4302ZM42.5497 66.1459C42.0359 66.1585 41.6328 65.9678 41.2682 65.4427L39.6255 66.5835C40.3394 67.6116 41.3545 68.1758 42.5988 68.1453L42.5497 66.1459ZM41.2709 65.4466C40.8896 64.8921 40.646 64.0623 40.646 62.8584H38.646C38.646 64.3078 38.9363 65.5811 39.6228 66.5797L41.2709 65.4466ZM40.646 62.8625C40.6509 61.6574 40.8995 60.8455 41.2767 60.3173L39.6493 59.1549C38.948 60.1366 38.6519 61.4063 38.646 62.8544L40.646 62.8625ZM41.274 60.3212C41.6289 59.8292 42.0674 59.6036 42.6875 59.6036V57.6036C41.4309 57.6036 40.3864 58.133 39.652 59.151L41.274 60.3212ZM43.7148 59.9009C42.9504 59.9009 42.3456 60.293 41.9779 60.922L43.7045 61.9314C43.722 61.9013 43.7343 61.8872 43.7384 61.883C43.7419 61.8792 43.7389 61.8831 43.7289 61.8891C43.7243 61.8919 43.7192 61.8945 43.7139 61.8967C43.7087 61.8989 43.7044 61.9003 43.7014 61.9011C43.695 61.9028 43.6982 61.9009 43.7148 61.9009V59.9009ZM41.9779 60.922C41.6452 61.491 41.5338 62.1939 41.5338 62.9232H43.5338C43.5338 62.3581 43.6273 62.0634 43.7045 61.9314L41.9779 60.922ZM41.5338 62.9232C41.5338 63.6474 41.6434 64.3548 41.9886 64.9179L43.6938 63.8728C43.6291 63.7673 43.5338 63.4932 43.5338 62.9232H41.5338ZM41.9947 64.9278C42.3991 65.5707 43.0418 65.8969 43.7795 65.8969V63.8969C43.7427 63.8969 43.721 63.8932 43.7111 63.8909C43.7018 63.8887 43.7009 63.8875 43.7049 63.8896C43.7089 63.8917 43.7111 63.8938 43.7102 63.8929C43.7088 63.8916 43.7005 63.8834 43.6876 63.8629L41.9947 64.9278ZM43.7795 65.8969C44.433 65.8969 45.0941 65.668 45.518 65.0502L43.869 63.9185C43.8715 63.9149 43.878 63.9067 43.8888 63.8976C43.8996 63.8886 43.9087 63.8838 43.9121 63.8823C43.9179 63.8796 43.8834 63.8969 43.7795 63.8969V65.8969ZM45.5157 65.0535C45.8783 64.5299 45.9909 63.8418 46.0087 63.1679L44.0094 63.1153C43.9947 63.6709 43.8971 63.878 43.8713 63.9151L45.5157 65.0535ZM46.009 63.1416V62.9151H44.009V63.1416H46.009ZM46.009 62.9151C46.009 62.1511 45.9067 61.3821 45.5234 60.8121L43.8637 61.9281C43.901 61.9836 44.009 62.2446 44.009 62.9151H46.009ZM45.53 60.822C45.1019 60.1686 44.4229 59.9009 43.7148 59.9009V61.9009C43.8236 61.9009 43.8628 61.9199 43.8629 61.92C43.863 61.92 43.8593 61.9181 43.8551 61.9143C43.851 61.9107 43.852 61.9104 43.8571 61.9181L45.53 60.822ZM58.3259 62.9879H57.3259V63.9879H58.3259V62.9879ZM58.3259 60.7715V59.7715H57.3259V60.7715H58.3259ZM62.9204 60.7715H63.9204V59.7715H62.9204V60.7715ZM62.9204 66.5066L63.2453 67.4523L63.9204 67.2204V66.5066H62.9204ZM55.0094 65.7219L54.2819 66.4081L54.284 66.4103L55.0094 65.7219ZM55.1307 57.6411L55.8299 58.356L55.8319 58.354L55.1307 57.6411ZM62.702 56.8726L63.63 57.2451L63.9901 56.3482L63.1059 55.9578L62.702 56.8726ZM61.796 59.1294L61.3514 60.0251L62.3208 60.5064L62.7241 59.502L61.796 59.1294ZM57.3228 59.3802L56.5577 58.7363L56.5577 58.7363L57.3228 59.3802ZM57.2581 63.999L56.4749 64.6207L56.4749 64.6207L57.2581 63.999ZM60.2268 64.6542L60.4693 65.6243L61.2268 65.435V64.6542H60.2268ZM60.2268 62.9879H61.2268V61.9879H60.2268V62.9879ZM59.3259 62.9879V60.7715H57.3259V62.9879H59.3259ZM58.3259 61.7715H62.9204V59.7715H58.3259V61.7715ZM61.9204 60.7715V66.5066H63.9204V60.7715H61.9204ZM62.5956 65.5608C61.4736 65.9462 60.2154 66.1456 58.8112 66.1456V68.1456C60.4053 68.1456 61.8866 67.919 63.2453 67.4523L62.5956 65.5608ZM58.8112 66.1456C57.3788 66.1456 56.4017 65.7365 55.7348 65.0336L54.284 66.4103C55.4182 67.6056 56.9756 68.1456 58.8112 68.1456V66.1456ZM55.7369 65.0358C55.0687 64.3274 54.6666 63.2598 54.6666 61.6855H52.6666C52.6666 63.595 53.1597 65.2183 54.2819 66.4081L55.7369 65.0358ZM54.6666 61.6855C54.6666 60.1347 55.0957 59.074 55.8299 58.356L54.4316 56.9261C53.2136 58.1171 52.6666 59.7528 52.6666 61.6855H54.6666ZM55.8319 58.354C56.5703 57.6279 57.6634 57.2012 59.2561 57.2012V55.2012C57.3004 55.2012 55.6433 55.7344 54.4295 56.9281L55.8319 58.354ZM59.2561 57.2012C60.4223 57.2012 61.4301 57.4042 62.2981 57.7874L63.1059 55.9578C61.9463 55.4458 60.6568 55.2012 59.2561 55.2012V57.2012ZM61.774 56.5001L60.868 58.7569L62.7241 59.502L63.63 57.2451L61.774 56.5001ZM62.2407 58.2337C61.3363 57.7847 60.3609 57.5632 59.3289 57.5632V59.5632C60.0657 59.5632 60.735 59.7191 61.3514 60.0251L62.2407 58.2337ZM59.3289 57.5632C58.2304 57.5632 57.2499 57.9138 56.5577 58.7363L58.0879 60.0241C58.3125 59.7573 58.6694 59.5632 59.3289 59.5632V57.5632ZM56.5577 58.7363C55.8952 59.5235 55.6353 60.5625 55.6353 61.7098H57.6353C57.6353 60.8402 57.8337 60.3262 58.0879 60.0241L56.5577 58.7363ZM55.6353 61.7098C55.6353 62.8302 55.8642 63.8514 56.4749 64.6207L58.0413 63.3773C57.8216 63.1004 57.6353 62.5955 57.6353 61.7098H55.6353ZM56.4749 64.6207C57.1134 65.4251 58.0253 65.7836 59.0539 65.7836V63.7836C58.5186 63.7836 58.2333 63.6191 58.0413 63.3773L56.4749 64.6207ZM59.0539 65.7836C59.5547 65.7836 60.0293 65.7343 60.4693 65.6243L59.9842 63.6841C59.734 63.7466 59.4267 63.7836 59.0539 63.7836V65.7836ZM61.2268 64.6542V62.9879H59.2268V64.6542H61.2268ZM60.2268 61.9879H58.3259V63.9879H60.2268V61.9879ZM72.2691 67V68H73.2691V67H72.2691ZM70.3035 67L69.4104 67.4499L69.6875 68H70.3035V67ZM69.7535 65.908L70.6466 65.4581L70.3695 64.908H69.7535V65.908ZM69.6969 65.908V64.908H69.2136L68.9134 65.2866L69.6969 65.908ZM68.524 66.8787L68.1257 65.9614L68.1212 65.9634L68.524 66.8787ZM65.1428 66.4419L65.8705 65.756L65.8705 65.756L65.1428 66.4419ZM68.0467 61.7988L68.0116 60.7994L68.0059 60.7996L68.0467 61.7988ZM69.4299 61.7503L69.465 62.7496L70.4299 62.7158V61.7503H69.4299ZM66.1296 61.2245L65.2142 61.6269L65.6146 62.5377L66.5274 62.142L66.1296 61.2245ZM65.3045 59.3478L64.8474 58.4584L64.0103 58.8887L64.3891 59.7503L65.3045 59.3478ZM71.3955 59.3964L70.7201 60.1338L70.7235 60.1369L71.3955 59.3964ZM69.074 64.816L69.7384 65.5634L69.7384 65.5634L69.074 64.816ZM69.438 63.3195H70.438V62.2818L69.401 62.3202L69.438 63.3195ZM68.7828 63.3438L68.7458 62.3444L68.7366 62.3448L68.7828 63.3438ZM72.2691 66H70.3035V68H72.2691V66ZM71.1966 66.5501L70.6466 65.4581L68.8604 66.3578L69.4104 67.4499L71.1966 66.5501ZM69.7535 64.908H69.6969V66.908H69.7535V64.908ZM68.9134 65.2866C68.6101 65.669 68.3422 65.8674 68.1257 65.9614L68.9222 67.7959C69.5254 67.534 70.0394 67.0853 70.4804 66.5294L68.9134 65.2866ZM68.1212 65.9634C67.8849 66.0673 67.5193 66.1456 66.979 66.1456V68.1456C67.6897 68.1456 68.3541 68.0459 68.9267 67.794L68.1212 65.9634ZM66.979 66.1456C66.4094 66.1456 66.0844 65.9829 65.8705 65.756L64.415 67.1277C65.0855 67.8391 65.9847 68.1456 66.979 68.1456V66.1456ZM65.8705 65.756C65.6503 65.5224 65.4795 65.1434 65.4795 64.4843H63.4795C63.4795 65.497 63.7508 66.423 64.415 67.1277L65.8705 65.756ZM65.4795 64.4843C65.4795 63.9024 65.6661 63.5727 65.9727 63.3419C66.3342 63.0697 66.9897 62.8428 68.0875 62.798L68.0059 60.7996C66.7255 60.8519 65.5974 61.1211 64.7698 61.7441C63.8873 62.4084 63.4795 63.373 63.4795 64.4843H65.4795ZM68.0818 62.7982L69.465 62.7496L69.3949 60.7509L68.0116 60.7994L68.0818 62.7982ZM70.4299 61.7503V61.637H68.4299V61.7503H70.4299ZM70.4299 61.637C70.4299 61.1451 70.3075 60.5921 69.8871 60.1683C69.4651 59.743 68.912 59.6178 68.4188 59.6178V61.6178C68.4614 61.6178 68.4924 61.6205 68.5132 61.6235C68.534 61.6265 68.5429 61.6295 68.5427 61.6294C68.5421 61.6292 68.5325 61.6259 68.5174 61.6168C68.51 61.6123 68.5017 61.6067 68.493 61.5999C68.4843 61.593 68.4756 61.5853 68.4672 61.5769C68.45 61.5595 68.4372 61.5421 68.4284 61.5274C68.4199 61.513 68.4171 61.5044 68.4173 61.5051C68.4176 61.506 68.4209 61.5163 68.424 61.5385C68.4272 61.5607 68.4299 61.593 68.4299 61.637H70.4299ZM68.4188 59.6178C67.6243 59.6178 66.7133 59.8815 65.7319 60.307L66.5274 62.142C67.4118 61.7585 68.0269 61.6178 68.4188 61.6178V59.6178ZM67.045 60.822L66.22 58.9454L64.3891 59.7503L65.2142 61.6269L67.045 60.822ZM65.7617 60.2372C66.5452 59.8345 67.5896 59.6036 68.9446 59.6036V57.6036C67.3768 57.6036 65.9945 57.8689 64.8474 58.4584L65.7617 60.2372ZM68.9446 59.6036C69.8405 59.6036 70.384 59.826 70.7201 60.1338L72.071 58.6589C71.253 57.9098 70.1626 57.6036 68.9446 57.6036V59.6036ZM70.7235 60.1369C71.0581 60.4405 71.2691 60.8803 71.2691 61.5885H73.2691C73.2691 60.4308 72.8978 59.4092 72.0675 58.6558L70.7235 60.1369ZM71.2691 61.5885V67H73.2691V61.5885H71.2691ZM66.3834 64.3792C66.3834 64.8031 66.4991 65.3006 66.9007 65.6781C67.2907 66.0446 67.7834 66.1395 68.1923 66.1395V64.1395C68.0619 64.1395 68.1502 64.1077 68.2705 64.2208C68.3294 64.2761 68.3618 64.3363 68.3765 64.3776C68.3892 64.4134 68.3834 64.42 68.3834 64.3792H66.3834ZM68.1923 66.1395C68.7655 66.1395 69.3005 65.9526 69.7384 65.5634L68.4096 64.0686C68.3622 64.1107 68.3093 64.1395 68.1923 64.1395V66.1395ZM69.7384 65.5634C70.2165 65.1384 70.438 64.5693 70.438 63.9585H68.438C68.438 64.0217 68.4276 64.0465 68.4265 64.0491C68.4256 64.0511 68.425 64.0522 68.424 64.0537C68.4228 64.0552 68.4189 64.0603 68.4096 64.0686L69.7384 65.5634ZM70.438 63.9585V63.3195H68.438V63.9585H70.438ZM69.401 62.3202L68.7458 62.3445L68.8198 64.3431L69.475 64.3188L69.401 62.3202ZM68.7366 62.3448C68.1822 62.3705 67.6013 62.4886 67.1385 62.8311C66.6183 63.2159 66.3834 63.7807 66.3834 64.3792H68.3834C68.3834 64.3382 68.3904 64.3449 68.3759 64.3759C68.3596 64.4105 68.3365 64.4326 68.328 64.4389C68.3249 64.4412 68.3525 64.4201 68.4379 64.3964C68.5236 64.3726 68.6505 64.351 68.829 64.3427L68.7366 62.3448ZM87.1722 67V68H88.1722V67H87.1722ZM84.3249 67H83.3249V68H84.3249V67ZM84.0984 61.2568L83.2218 61.7381L83.2259 61.7454L84.0984 61.2568ZM82.4078 61.4024L81.5318 60.92L81.5265 60.9299L82.4078 61.4024ZM82.1085 67V68H83.1085V67H82.1085ZM79.2531 67H78.2531V68H79.2531V67ZM79.0266 61.2568L78.1428 61.7247L78.1464 61.7314L78.1501 61.7381L79.0266 61.2568ZM77.3441 61.4429L76.4545 60.986L76.4497 60.9957L77.3441 61.4429ZM77.0448 67V68H78.0448V67H77.0448ZM74.1975 67H73.1975V68H74.1975V67ZM74.1975 58.7492V57.7492H73.1975V58.7492H74.1975ZM76.3492 58.7492L77.2933 58.4196L77.0592 57.7492H76.3492V58.7492ZM76.7051 59.7685L75.761 60.0981L75.9951 60.7685H76.7051V59.7685ZM76.875 59.7685V60.7685H77.4584L77.7455 60.2605L76.875 59.7685ZM77.8133 58.911L78.2464 59.8124L78.2558 59.8078L77.8133 58.911ZM81.7445 59.6876L80.9115 60.2408L81.2082 60.6876H81.7445V59.6876ZM81.971 59.6876V60.6876H82.4992L82.797 60.2513L81.971 59.6876ZM82.9417 58.8948L83.3555 59.8053L83.3652 59.8007L82.9417 58.8948ZM86.4685 59.3559L85.7382 60.0391L85.7419 60.043L86.4685 59.3559ZM87.1722 66H84.3249V68H87.1722V66ZM85.3249 67V62.5187H83.3249V67H85.3249ZM85.3249 62.5187C85.3249 61.8988 85.25 61.2665 84.9709 60.7682L83.2259 61.7454C83.2489 61.7864 83.3249 61.9954 83.3249 62.5187H85.3249ZM84.975 60.7756C84.8217 60.4962 84.5985 60.2487 84.2962 60.0774C83.9972 59.908 83.6761 59.8443 83.3704 59.8443V61.8443C83.3991 61.8443 83.3665 61.8493 83.3102 61.8174C83.2837 61.8025 83.2614 61.7844 83.2445 61.7667C83.2282 61.7496 83.2217 61.7378 83.2218 61.7381L84.975 60.7756ZM83.3704 59.8443C83.0074 59.8443 82.6385 59.9228 82.3006 60.1187C81.9611 60.3155 81.709 60.5983 81.5319 60.92L83.2838 61.8848C83.2987 61.8577 83.309 61.8463 83.3112 61.8439C83.3128 61.8422 83.3101 61.8453 83.3038 61.8489C83.2976 61.8525 83.2958 61.8521 83.303 61.8503C83.311 61.8484 83.3321 61.8443 83.3704 61.8443V59.8443ZM81.5265 60.9299C81.2067 61.5264 81.1085 62.3171 81.1085 63.1577H83.1085C83.1085 62.4022 83.2099 62.0227 83.2891 61.875L81.5265 60.9299ZM81.1085 63.1577V67H83.1085V63.1577H81.1085ZM82.1085 66H79.2531V68H82.1085V66ZM80.2531 67V62.5187H78.2531V67H80.2531ZM80.2531 62.5187C80.2531 61.8997 80.1768 61.2739 79.9032 60.7756L78.1501 61.7381C78.1784 61.7898 78.2531 62.0052 78.2531 62.5187H80.2531ZM79.9104 60.7889C79.765 60.5143 79.551 60.2636 79.2536 60.0873C78.9574 59.9117 78.6369 59.8443 78.331 59.8443V61.8443C78.3432 61.8443 78.2977 61.8457 78.2334 61.8076C78.168 61.7687 78.1426 61.7243 78.1428 61.7247L79.9104 60.7889ZM78.331 59.8443C77.9544 59.8443 77.5726 59.9286 77.2259 60.1389C76.8787 60.3495 76.6272 60.6498 76.4546 60.9861L78.2337 61.8997C78.2507 61.8665 78.2633 61.8512 78.2674 61.8466C78.2708 61.8427 78.2693 61.8452 78.2631 61.8489C78.257 61.8527 78.2549 61.8524 78.2618 61.8507C78.2695 61.8487 78.2911 61.8443 78.331 61.8443V59.8443ZM76.4497 60.9957C76.1403 61.6145 76.0448 62.4636 76.0448 63.3923H78.0448C78.0448 62.5199 78.1489 62.0694 78.2386 61.8901L76.4497 60.9957ZM76.0448 63.3923V67H78.0448V63.3923H76.0448ZM77.0448 66H74.1975V68H77.0448V66ZM75.1975 67V58.7492H73.1975V67H75.1975ZM74.1975 59.7492H76.3492V57.7492H74.1975V59.7492ZM75.4051 59.0789L75.761 60.0981L77.6492 59.4388L77.2933 58.4196L75.4051 59.0789ZM76.7051 60.7685H76.875V58.7685H76.7051V60.7685ZM77.7455 60.2605C77.8473 60.0804 78.0003 59.9306 78.2464 59.8124L77.3802 58.0097C76.7958 58.2905 76.3232 58.7123 76.0044 59.2764L77.7455 60.2605ZM78.2558 59.8078C78.5138 59.6805 78.8331 59.6036 79.237 59.6036V57.6036C78.5731 57.6036 77.9432 57.7317 77.3707 58.0143L78.2558 59.8078ZM79.237 59.6036C80.2311 59.6036 80.6818 59.895 80.9115 60.2408L82.5775 59.1343C81.8474 58.0349 80.6264 57.6036 79.237 57.6036V59.6036ZM81.7445 60.6876H81.971V58.6876H81.7445V60.6876ZM82.797 60.2513C82.9148 60.0787 83.0881 59.9268 83.3555 59.8052L82.5279 57.9845C81.9648 58.2404 81.491 58.6169 81.1451 59.1238L82.797 60.2513ZM83.3652 59.8007C83.6358 59.6742 83.9477 59.6036 84.3168 59.6036V57.6036C83.6829 57.6036 83.0781 57.7272 82.5182 57.989L83.3652 59.8007ZM84.3168 59.6036C85.1203 59.6036 85.5245 59.8106 85.7382 60.0391L87.1988 58.6728C86.4742 57.8982 85.4439 57.6036 84.3168 57.6036V59.6036ZM85.7419 60.043C85.965 60.2789 86.1722 60.7426 86.1722 61.637H88.1722C88.1722 60.4822 87.9103 59.4252 87.1951 58.6688L85.7419 60.043ZM86.1722 61.637V67H88.1722V61.637H86.1722ZM94.127 61.8554V62.8554H95.1406L95.1269 61.8419L94.127 61.8554ZM93.7954 60.9009L94.5353 60.2282L94.5353 60.2282L93.7954 60.9009ZM92.0643 60.8766L92.7714 61.5838L92.7714 61.5837L92.0643 60.8766ZM91.6842 61.8554L90.6879 61.7693L90.594 62.8554H91.6842V61.8554ZM89.8884 66.0536L89.1915 66.7708L89.1968 66.7759L89.8884 66.0536ZM89.7994 59.7199L89.0715 59.0342L89.7994 59.7199ZM95.6963 59.5824L95.0008 60.3009L95.0036 60.3037L95.6963 59.5824ZM96.7155 63.6431V64.6431H97.7155V63.6431H96.7155ZM91.6275 63.6431V62.6431H90.592L90.6281 63.6779L91.6275 63.6431ZM92.129 64.7351L91.4901 65.5044L91.498 65.5108L92.129 64.7351ZM94.8065 64.9858L95.0169 65.9635L95.0287 65.9609L94.8065 64.9858ZM96.1735 64.4924H97.1735V62.9064L95.7424 63.5901L96.1735 64.4924ZM96.1735 66.5389L96.6384 67.4243L97.1735 67.1434V66.5389H96.1735ZM94.8065 67.0081L94.6295 66.0238L94.6168 66.0262L94.8065 67.0081ZM95.1269 61.8419C95.1191 61.2608 94.9526 60.6873 94.5353 60.2282L93.0554 61.5736C93.0695 61.5891 93.1242 61.6519 93.1271 61.8689L95.1269 61.8419ZM94.5353 60.2282C94.105 59.7549 93.5333 59.545 92.9299 59.545V61.545C93.0005 61.545 93.0308 61.5563 93.0369 61.5588C93.0405 61.5603 93.0421 61.5614 93.0433 61.5622C93.0445 61.563 93.0486 61.5661 93.0554 61.5736L94.5353 60.2282ZM92.9299 59.545C92.3486 59.545 91.7923 59.7345 91.3572 60.1695L92.7714 61.5837C92.784 61.5712 92.7928 61.5661 92.8043 61.5617C92.8184 61.5563 92.8559 61.545 92.9299 61.545V59.545ZM91.3572 60.1695C90.9154 60.6114 90.7372 61.1985 90.6879 61.7693L92.6804 61.9415C92.7066 61.6388 92.7819 61.5733 92.7714 61.5838L91.3572 60.1695ZM91.6842 62.8554H94.127V60.8554H91.6842V62.8554ZM93.0916 66.1456C91.8926 66.1456 91.1026 65.8317 90.58 65.3313L89.1968 66.7759C90.1949 67.7315 91.5404 68.1456 93.0916 68.1456V66.1456ZM90.5853 65.3364C90.071 64.8367 89.7479 64.0731 89.7479 62.8908H87.7479C87.7479 64.448 88.1851 65.7929 89.1915 66.7708L90.5853 65.3364ZM89.7479 62.8908C89.7479 61.6874 90.0535 60.9086 90.5273 60.4056L89.0715 59.0342C88.1432 60.0197 87.7479 61.3547 87.7479 62.8908H89.7479ZM90.5273 60.4056C90.9943 59.9099 91.6921 59.6036 92.7681 59.6036V57.6036C91.2879 57.6036 90.0066 58.0416 89.0715 59.0342L90.5273 60.4056ZM92.7681 59.6036C93.8825 59.6036 94.5723 59.8862 95.0008 60.3009L96.3918 58.8639C95.4721 57.9736 94.2098 57.6036 92.7681 57.6036V59.6036ZM95.0036 60.3037C95.4343 60.7172 95.7155 61.3576 95.7155 62.3812H97.7155C97.7155 60.9781 97.3172 59.7526 96.3889 58.8611L95.0036 60.3037ZM95.7155 62.3812V63.6431H97.7155V62.3812H95.7155ZM96.7155 62.6431H91.6275V64.6431H96.7155V62.6431ZM90.6281 63.6779C90.6529 64.388 90.9245 65.0346 91.4901 65.5044L92.7679 63.9658C92.6973 63.9071 92.6345 63.8257 92.6269 63.6082L90.6281 63.6779ZM91.498 65.5108C92.037 65.9493 92.6969 66.1234 93.3828 66.1234V64.1234C93.0334 64.1234 92.8574 64.0385 92.7601 63.9594L91.498 65.5108ZM93.3828 66.1234C93.9631 66.1234 94.5096 66.0726 95.0169 65.9635L94.5961 64.0082C94.2514 64.0824 93.8488 64.1234 93.3828 64.1234V66.1234ZM95.0287 65.9609C95.5411 65.8441 96.0672 65.6515 96.6046 65.3947L95.7424 63.5901C95.3092 63.7971 94.9239 63.9335 94.5843 64.0108L95.0287 65.9609ZM95.1735 64.4924V66.5389H97.1735V64.4924H95.1735ZM95.7087 65.6535C95.3677 65.8325 95.0091 65.9556 94.6296 66.0239L94.9834 67.9923C95.5637 67.888 96.1165 67.6983 96.6384 67.4243L95.7087 65.6535ZM94.6168 66.0262C94.2234 66.1022 93.7189 66.1456 93.0916 66.1456V68.1456C93.8017 68.1456 94.4405 68.0973 94.9962 67.9899L94.6168 66.0262Z" fill="black" mask="url(#path-4-outside-2_194_18)"/>
<defs>
<filter id="filter0_i_194_18" x="11.2812" y="15.6038" width="73.7456" height="36.833" filterUnits="userSpaceOnUse" color-interpolation-filters="sRGB">
<feFlood flood-opacity="0" result="BackgroundImageFix"/>
<feBlend mode="normal" in="SourceGraphic" in2="BackgroundImageFix" result="shape"/>
<feColorMatrix in="SourceAlpha" type="matrix" values="0 0 0 0 0 0 0 0 0 0 0 0 0 0 0 0 0 0 127 0" result="hardAlpha"/>
<feOffset dy="4"/>
<feGaussianBlur stdDeviation="2"/>
<feComposite in2="hardAlpha" operator="arithmetic" k2="-1" k3="1"/>
<feColorMatrix type="matrix" values="0 0 0 0 0.137257 0 0 0 0 0.279167 0 0 0 0 0.168477 0 0 0 0.78 0"/>
<feBlend mode="normal" in2="shape" result="effect1_innerShadow_194_18"/>
</filter>
</defs>
</svg>
